<svg xmlns="http://www.w3.org/2000/svg" viewBox="0 0 64 64" width="64" height="64">
  <defs>
    <linearGradient id="gear-gradient" x1="0%" y1="0%" x2="100%" y2="100%">
      <stop offset="0%" style="stop-color:#006847;stop-opacity:1" />
      <stop offset="100%" style="stop-color:#004d35;stop-opacity:1" />
    </linearGradient>
  </defs>
  <rect width="64" height="64" rx="12" fill="#1a1a1a"/>
  <g transform="translate(32,32)">
    <path d="M0,-24 L4,-24 L6,-20 L10,-18 L14,-20 L17,-17 L15,-13 L17,-9 L21,-7 L21,-3 L17,-1 L17,3 L21,5 L21,9 L17,11 L15,15 L17,19 L14,22 L10,20 L6,22 L4,26 L0,26 L-2,22 L-6,20 L-10,22 L-13,19 L-11,15 L-13,11 L-17,9 L-17,5 L-13,3 L-13,-1 L-17,-3 L-17,-7 L-13,-9 L-11,-13 L-13,-17 L-10,-20 L-6,-18 L-2,-20 L0,-24 Z" 
          fill="url(#gear-gradient)" 
          stroke="#00ff9d" 
          stroke-width="1"/>
    <circle cx="0" cy="0" r="8" fill="#1a1a1a" stroke="#006847" stroke-width="2"/>
  </g>
</svg>
